<svg id="Layer_1" enable-background="new 0 0 512 512" height="512" viewBox="0 0 512 512" width="512" xmlns="http://www.w3.org/2000/svg"><path d="m437.02 74.98c-48.353-48.351-112.64-74.98-181.02-74.98s-132.667 26.629-181.02 74.98c-48.351 48.353-74.98 112.64-74.98 181.02s26.629 132.667 74.98 181.02c48.353 48.351 112.64 74.98 181.02 74.98s132.667-26.629 181.02-74.98c48.351-48.353 74.98-112.64 74.98-181.02s-26.629-132.667-74.98-181.02zm-397.02 181.02c0-52.365 18.736-100.433 49.85-137.866l29.008 29.008c3.905 3.905 9.024 5.858 14.142 5.858s10.237-1.953 14.143-5.858c7.81-7.811 7.81-20.474 0-28.284l-29.008-29.008c37.432-31.114 85.5-49.85 137.865-49.85 119.103 0 216 96.897 216 216 0 52.365-18.736 100.433-49.85 137.866l-73.008-73.008c-7.811-7.811-20.475-7.811-28.285 0s-7.811 20.474 0 28.284l73.008 73.008c-37.432 31.114-85.5 49.85-137.865 49.85-119.103 0-216-96.897-216-216zm148 134c-11.046 0-20-8.954-20-20v-165.238c0-52.252 42.617-94.762 95-94.762s95 42.51 95 94.762c0 25.329-9.914 49.065-27.916 66.836-17.9 17.671-41.725 27.402-67.084 27.402h-55v71c0 11.046-8.954 20-20 20zm20-131h55c30.327 0 55-24.331 55-54.238 0-30.196-24.673-54.762-55-54.762s-55 24.566-55 54.762z"/></svg>